<?xml version="1.0" encoding="UTF-8" standalone="no"?>
<!-- Created with Inkscape (http://www.inkscape.org/) -->

<svg
   width="800"
   height="500"
   viewBox="0 0 160 100"
   version="1.1"
   id="svg1"
   inkscape:version="1.3.2 (091e20ef0f, 2023-11-25)"
   sodipodi:docname="drawing.svg"
   xml:space="preserve"
   xmlns:inkscape="http://www.inkscape.org/namespaces/inkscape"
   xmlns:sodipodi="http://sodipodi.sourceforge.net/DTD/sodipodi-0.dtd"
   xmlns:xlink="http://www.w3.org/1999/xlink"
   xmlns="http://www.w3.org/2000/svg"
   xmlns:svg="http://www.w3.org/2000/svg"><sodipodi:namedview
     id="namedview1"
     pagecolor="#505050"
     bordercolor="#eeeeee"
     borderopacity="1"
     inkscape:showpageshadow="0"
     inkscape:pageopacity="0"
     inkscape:pagecheckerboard="0"
     inkscape:deskcolor="#505050"
     inkscape:document-units="px"
     inkscape:zoom="1"
     inkscape:cx="344"
     inkscape:cy="276"
     inkscape:window-width="1920"
     inkscape:window-height="1008"
     inkscape:window-x="0"
     inkscape:window-y="0"
     inkscape:window-maximized="1"
     inkscape:current-layer="layer8" /><defs
     id="defs1"><linearGradient
       id="linearGradient24"
       inkscape:collect="always"><stop
         style="stop-color:#bababa;stop-opacity:1;"
         offset="0"
         id="stop24" /><stop
         style="stop-color:#ffffff;stop-opacity:1;"
         offset="0.62013251"
         id="stop25" /></linearGradient><linearGradient
       id="linearGradient22"
       inkscape:collect="always"><stop
         style="stop-color:#737373;stop-opacity:1;"
         offset="0"
         id="stop22" /><stop
         style="stop-color:#734c4c;stop-opacity:1;"
         offset="1"
         id="stop23" /></linearGradient><linearGradient
       id="linearGradient20"
       inkscape:collect="always"><stop
         style="stop-color:#bda7a7;stop-opacity:1;"
         offset="0"
         id="stop20" /><stop
         style="stop-color:#b2b2b2;stop-opacity:1;"
         offset="1"
         id="stop21" /></linearGradient><linearGradient
       id="swatch12"><stop
         style="stop-color:#9a9a9a;stop-opacity:1;"
         offset="0"
         id="stop12" /><stop
         style="stop-color:#aeaeae;stop-opacity:1;"
         offset="0.71649629"
         id="stop14" /><stop
         style="stop-color:#d2d2d2;stop-opacity:1;"
         offset="1"
         id="stop13" /></linearGradient><linearGradient
       inkscape:collect="always"
       xlink:href="#swatch12"
       id="linearGradient13"
       gradientUnits="userSpaceOnUse"
       x1="-4.8420243"
       y1="105.64286"
       x2="165.99503"
       y2="93.187651" /><linearGradient
       inkscape:collect="always"
       xlink:href="#linearGradient20"
       id="linearGradient21"
       x1="0"
       y1="62.329807"
       x2="23.180346"
       y2="63.875498"
       gradientUnits="userSpaceOnUse" /><radialGradient
       inkscape:collect="always"
       xlink:href="#linearGradient22"
       id="radialGradient23"
       cx="31.784376"
       cy="68.540031"
       fx="31.784376"
       fy="68.540031"
       r="25.364193"
       gradientTransform="matrix(0.55003161,0.05586451,-0.25287924,2.4898024,31.634315,-103.39758)"
       gradientUnits="userSpaceOnUse"
       spreadMethod="pad" /><linearGradient
       inkscape:collect="always"
       xlink:href="#linearGradient24"
       id="linearGradient25"
       x1="21.340775"
       y1="20.083984"
       x2="48.09956"
       y2="30.197664"
       gradientUnits="userSpaceOnUse" /></defs><g
     inkscape:groupmode="layer"
     id="layer7"
     inkscape:label="Background"
     style="fill:#f5f5f5;fill-opacity:1;stroke:#000000;stroke-opacity:1"
     transform="translate(-9.2353783)"><g
       inkscape:groupmode="layer"
       id="layer8"
       inkscape:label="Middle Tree"><path
         id="rect25"
         style="fill:#79bf7f;fill-opacity:1;stroke:#000000;stroke-opacity:1;stroke-linecap:round;stroke-linejoin:round"
         d="m 145.087,37.208942 v 9.907031 h -36.85273 v -9.907031"
         sodipodi:nodetypes="cccc"
         transform="translate(-25.676162,32.61647)" /><path
         id="rect25-1"
         style="fill:#ffffff;fill-opacity:1;stroke:#000000;stroke-opacity:1;stroke-linecap:round;stroke-linejoin:round"
         d="m 114.03016,25.53236 v 9.907031 H 77.17743 V 25.53236"
         sodipodi:nodetypes="cccc"
         transform="translate(-25.676162,32.61647)" /><path
         id="rect26"
         style="fill:#53a44d;fill-opacity:1;stroke:#000000;stroke-opacity:1;stroke-linecap:round;stroke-linejoin:round"
         d="m 125.40658,-3.6535931 v 9.907031 H 88.55384 v -9.907031"
         sodipodi:nodetypes="cccc"
         transform="translate(-25.676162,32.61647)" /></g><g
       id="g25"
       inkscape:label="Behind Building Tree"
       transform="translate(-25.676162,32.616471)"
       style="display:inline"
       sodipodi:insensitive="true"><path
         style="display:none;fill:none;fill-opacity:1;stroke:#cccccc;stroke-width:1;stroke-linecap:round;stroke-linejoin:round;stroke-dasharray:none;stroke-opacity:1;paint-order:normal"
         d="M 51.456472,90.566406 47.11741,84.8 l 4.530858,0.72461 -6.453514,-5.292166 -0.79883,-4.339866 6.59922,1.288282 -7.92461,-7.016016 -2.63789,-5.044922 6.423438,2.426306 -5.614752,-7.03529 V 55.63789 l 3.810844,1.645704 -2.16367,-5.352734 5.552342,-0.515626 -4.773046,-3.305836 -0.380078,-4.130492 5.066016,3.353906 -2.83047,-5.609374 1.60547,-2.289454 1.832422,3.221898 0.07851,-7.0176 -6.498046,0.720312 -0.617578,2.923828 -5.633984,-0.286718"
         id="path26"
         transform="translate(25.676162,-32.616471)" /><path
         id="rect25-8"
         style="fill:#79bf7f;stroke-linecap:round;stroke-linejoin:round"
         d="m 72.793572,52.183529 6.28453,7.808918 -25.971618,-2.859498 1.352239,-9.326296"
         sodipodi:nodetypes="cccc" /><path
         id="rect26-3"
         style="fill:#53a44d;fill-opacity:1;stroke:#000000;stroke-linecap:round;stroke-linejoin:round;stroke-opacity:1"
         d="m 70.870916,47.615973 6.453514,5.292166 C 73.169359,52.645948 66.917492,52.495564 64.697137,50.102446 60.081834,53.15021 54.536521,50.104608 48.856508,49.195407 l 4.749976,-4.186779"
         sodipodi:nodetypes="ccccc" /><path
         id="path27"
         style="fill:#ffffff;stroke-linecap:round;stroke-linejoin:round"
         d="m 70.072086,43.276107 0.79883,4.339866 C 65.565334,48.28017 59.973982,47.968974 53.606484,45.008628 v -9.907031"
         sodipodi:nodetypes="cccc" /><path
         id="path28"
         style="fill:#53a44d;stroke-linecap:round;stroke-linejoin:round"
         d="m 68.746696,37.548373 7.92461,7.016016 -4.038278,-1.347693 0.555278,2.222969 -4.397497,-2.305611 0.309842,2.030943 -4.100173,-2.882307 -0.646768,2.225938 -3.920733,-3.118905 0.0057,2.710905 -5.205134,-3.976766 2.048301,-6.719233"
         sodipodi:nodetypes="cccccccccccc" /><path
         id="rect25-1-6"
         style="fill:#ffffff;fill-opacity:1;stroke:#000000;stroke-linecap:round;stroke-linejoin:round;stroke-opacity:1"
         d="m 66.108806,32.503451 2.63789,5.044922 c 0,0 -1.989218,1.207197 -3.660829,1.111604 -1.671611,-0.09559 -3.779888,-1.883406 -5.707011,-2.473989 -1.927123,-0.590583 -4.09307,0.939757 -5.772372,-1.084391 -1.679302,-2.024148 0,-9.907031 0,-9.907031"
         sodipodi:nodetypes="cczzzc" /><path
         id="rect25-4"
         style="fill:#79bf7f;fill-opacity:1;stroke:#000000;stroke-linecap:round;stroke-linejoin:round;stroke-opacity:1"
         d="m 66.917492,27.894467 5.614752,7.03529 -7.638567,-2.547583 0.073,2.547584 -4.471241,-4.014468 -1.920046,-0.714095 1.231994,3.493913 -4.414256,-1.472223 -3.470898,-14.073926"
         sodipodi:nodetypes="ccccccccc" /><path
         id="path1"
         style="fill:#53a44d;stroke-linecap:round;stroke-linejoin:round"
         d="m 66.917492,23.021419 v 0 l 4.873526,7.464457 -4.873526,-2.591409 -0.498236,2.274991 -3.050179,-2.807429 -1.902853,1.547607 -1.315007,-2.54254 -1.220445,2.067136 -0.721017,-5.820916"
         sodipodi:nodetypes="cccccccccc" /><path
         id="path9"
         style="fill:#ffffff;stroke-linecap:round;stroke-linejoin:round"
         d="m 68.564666,19.314389 v 0 l 2.16367,5.352734 C 66.402322,24.536172 61.616278,23.164491 56.128022,19.898909"
         sodipodi:nodetypes="cccc" /><path
         id="path10"
         style="fill:#79bf7f;stroke-linecap:round;stroke-linejoin:round"
         d="m 60.803266,14.973009 8.540696,0.519918 4.773046,3.305836 -3.57294,0.433651 -1.053254,2.373185 -2.720663,-1.775677 -1.199148,1.858421 -1.924724,-1.905525 -2.098429,1.531397 -1.520153,-2.600134"
         sodipodi:nodetypes="cccccccccc" /><path
         id="path15"
         style="fill:#ffffff;stroke-width:1;stroke-linecap:round;stroke-linejoin:round"
         d="m 70.01745,12.059938 1.713035,5.085907 c -0.835333,0.866478 -4.992539,-0.460596 -9.868485,-1.9296 l 2.320416,-8.8163226"
         sodipodi:nodetypes="cccc" /><path
         id="path14"
         style="fill:#79bf7f;stroke-width:1;stroke-linecap:round;stroke-linejoin:round"
         d="m 71.696114,10.091285 2.333786,4.625056 -5.066016,-3.353906 -1.562559,2.673115 -1.471328,-3.496274 -3.307394,2.04016 1.559813,-6.1795136"
         sodipodi:nodetypes="ccccccc" /><path
         id="path13"
         style="fill:#ffffff;stroke-linecap:round;stroke-linejoin:round"
         d="m 64.182416,6.3999224 c 2.157416,2.3337065 4.932222,4.7002656 7.513698,3.6913626 L 72.8049,6.817513 69.950064,5.7201839 Z"
         sodipodi:nodetypes="ccccc" /><path
         id="path12"
         style="fill:#53a44d;stroke-linecap:round;stroke-linejoin:round"
         d="m 68.217786,3.742123 6.498046,-0.720312 -0.07851,7.0176 L 72.8049,6.817513 70.569084,7.5363496 69.950064,5.7201839 67.600208,6.665951 Z"
         sodipodi:nodetypes="cccccccc" /></g><g
       id="g24"
       inkscape:label="Right Building"
       sodipodi:insensitive="true"><path
         id="rect14-7"
         style="fill:url(#radialGradient23);fill-opacity:1;stroke:#000000;stroke-linecap:round;stroke-linejoin:round;stroke-opacity:1"
         d="M -8.9870552,30.197667 H 40.741344 C 32.844821,61.518047 29.483715,72.044255 29.304625,104.89479 H -8.9870552 Z"
         sodipodi:nodetypes="ccccc" /><path
         id="rect24"
         style="fill:url(#linearGradient25);fill-opacity:1;stroke:#000000;stroke-linecap:round;stroke-linejoin:round;stroke-opacity:1"
         d="m 18.169607,21.083981 c 2.377128,-2.088155 6.129355,1.441924 9.788204,1.272226 3.65885,-0.169698 8.384858,-2.568407 11.809212,-2.664895 3.424353,-0.09649 6.632947,-0.08815 8.332535,1.392669 1.699588,1.480814 1.545243,3.245177 1.514755,4.845846 -0.03049,1.600668 0.04534,2.871391 -1.514755,4.267837 -1.560098,1.396446 -5.453822,1.894266 -7.821663,1.835203 -2.367842,-0.05906 -3.559998,-1.605953 -5.936236,-1.70917 -2.376237,-0.103218 -5.193529,1.567686 -7.9424,1.556487 -2.748871,-0.0112 -6.383909,0.578757 -8.229652,-1.68252 -1.845743,-2.261277 -2.377128,-7.025528 0,-9.113683 z"
         sodipodi:nodetypes="zzzzzzzzzzz" /></g><g
       id="g23"
       inkscape:label="Left Building"
       sodipodi:insensitive="true"><path
         id="rect14"
         style="fill:url(#linearGradient21);fill-opacity:1;stroke-linecap:round;stroke-linejoin:round"
         d="M -8.9870552,22.856207 H 22.680351 c -3.472791,33.275732 -2.921407,50.872062 0,82.038583 H -8.9870552 Z"
         sodipodi:nodetypes="ccccc" /><rect
         style="fill:#846262;fill-opacity:1;stroke:#000000;stroke-width:1;stroke-linecap:round;stroke-linejoin:round;stroke-dasharray:none;stroke-opacity:1;paint-order:normal"
         id="rect18"
         width="33.631584"
         height="2.2722225"
         x="-8.9870548"
         y="20.583984" /><rect
         style="fill:#a08888;fill-opacity:1;stroke:#000000;stroke-width:1;stroke-linecap:round;stroke-linejoin:round;stroke-dasharray:none;stroke-opacity:1;paint-order:normal"
         id="rect19"
         width="36.444866"
         height="6.2636719"
         x="-8.9870548"
         y="14.320312" /><path
         id="rect20"
         style="stroke-linecap:round;stroke-linejoin:round"
         d="M -8.9870548,6.2630858 C -6.7719082,4.4395836 -3.1578124,8.0138952 0,8.0226561 3.1578124,8.0314171 6.2874566,6.3251038 9.6171478,6.1950693 12.946839,6.0650347 15.984084,7.2646359 19.759895,7.3125063 c 3.77581,0.047871 10.069792,-2.4131781 12.40827,-1.0494205 2.338478,1.3637576 1.509304,2.0015132 1.581641,3.4441408 0.07234,1.4426274 0.387383,2.9306614 -1.581641,4.6130854 -1.969024,1.682424 -5.336183,1.368474 -10.502386,1.842207 -5.166202,0.473732 -15.3438792,0.670655 -20.4636586,0.189157 -5.1197794,-0.481498 -8.2392588,0.345671 -10.1891752,-2.031364 -1.9499162,-2.377035 -2.2151462,-6.233724 0,-8.0572262 z"
         sodipodi:nodetypes="zzzzzzzzzzz" /></g></g><g
     inkscape:groupmode="layer"
     id="layer6"
     inkscape:label="Floor"
     sodipodi:insensitive="true"><path
       style="fill:url(#linearGradient13);fill-opacity:1;stroke:#000000;stroke-width:1;stroke-linecap:round;stroke-linejoin:round;stroke-dasharray:none;stroke-opacity:1;paint-order:normal"
       d="m 165.05195,90.492214 c 0.61151,0.798754 -53.6561,1.004392 -71.677732,-2.180606 -18.021629,-3.184998 -7.390447,2.734414 -16.208202,3.207924 -8.817755,0.47351 -27.693926,-3.264298 -36.31875,-3.207924 -8.624824,0.05637 -7.291136,2.27484 -15.21172,1.544252 -7.920584,-0.730588 -31.1257804,-9.123438 -31.1257804,-9.123438 l 0.6482102,24.910438 170.3370542,-3.73165 z"
       id="path11"
       sodipodi:nodetypes="czzzzcccc" /></g><g
     inkscape:groupmode="layer"
     id="layer5"
     inkscape:label="Building"
     sodipodi:insensitive="true" /><g
     inkscape:label="Truck"
     inkscape:groupmode="layer"
     id="layer1"
     transform="translate(11.761235)"
     sodipodi:insensitive="true"><g
       inkscape:groupmode="layer"
       id="layer2"
       inkscape:label="Truck Back"><path
         id="rect6"
         style="fill:#434343;fill-opacity:1;stroke:none;stroke-linecap:round;stroke-linejoin:round"
         d="m 130.33093,75.763474 h 32.78619 v 10.044177 l -32.78619,4.49277 z"
         sodipodi:nodetypes="ccccc" /><path
         style="fill:#434343;fill-opacity:1;stroke:#000000;stroke-width:1;stroke-linecap:round;stroke-linejoin:round;stroke-dasharray:none;stroke-opacity:1;paint-order:normal"
         d="m 126.77356,87.767938 -0.72598,5.102528 c 1.15295,0.613178 2.51947,0.51947 4.01891,-0.01422 l 0.52888,-5.111642"
         id="path5"
         sodipodi:nodetypes="cccc" /></g><g
       inkscape:groupmode="layer"
       id="layer3"
       inkscape:label="Wheel"><path
         id="path2"
         style="fill:#383838;fill-opacity:1;stroke:#000000;stroke-linecap:round;stroke-linejoin:round"
         d="m 159.50001,90.742058 c 0,3.551855 -0.66499,6.644715 -4.58353,8.013432 -1.40908,0.492181 -4.71044,0.02599 -6.35583,0.02599 -1.51774,10e-7 -5.50592,0.4 -6.82732,-0.02245 -4.09487,-1.309114 -4.76184,-4.36604 -4.76184,-8.016974 0,-4.829076 5.04318,-8.743816 11.26426,-8.743816 6.22108,0 11.26426,3.91474 11.26426,8.743816 z"
         sodipodi:nodetypes="scscssss" /><circle
         style="fill:#acacac;fill-opacity:1;stroke:#000000;stroke-width:1;stroke-linecap:round;stroke-linejoin:round;stroke-dasharray:none;stroke-opacity:1;paint-order:normal"
         id="path3"
         cx="148.23575"
         cy="90.742058"
         r="4.4344068" /><circle
         style="fill:#828282;fill-opacity:1;stroke:#000000;stroke-width:1;stroke-linecap:round;stroke-linejoin:round;stroke-dasharray:none;stroke-opacity:1;paint-order:normal"
         id="path4"
         cx="148.23575"
         cy="90.742058"
         r="1.9879827" /></g><g
       inkscape:groupmode="layer"
       id="layer4"
       inkscape:label="Truck Truck"><circle
         style="fill:#828282;fill-opacity:1;stroke:#000000;stroke-width:1;stroke-linecap:round;stroke-linejoin:round;stroke-dasharray:none;stroke-opacity:1;paint-order:normal"
         id="path6-2"
         cx="132.19962"
         cy="15.378613"
         r="0.96875012" /><path
         id="rect1-5"
         style="fill:#828282;fill-opacity:1;stroke:#000000;stroke-width:0.999997;stroke-linecap:round;stroke-linejoin:round"
         d="m 135.23029,14.409861 h 26.01695 v 2.41448 h -26.01695 c 0.0834,-0.805198 0.0928,-1.610067 0,-2.41448 z"
         sodipodi:nodetypes="ccccc" /><path
         style="fill:#626262;fill-opacity:1;stroke:none;stroke-width:1;stroke-linecap:round;stroke-linejoin:round;stroke-dasharray:none;stroke-opacity:1;paint-order:normal"
         d="m 162.57662,78.043926 h -22.41247 l -9.18725,7.124886 -4.19474,0.167184 V 25.404614 L 128.7,18.7542 l 6.53029,-1.929859 h 26.01695 l 1.32938,61.219585"
         id="path7" /><path
         id="rect1"
         style="fill:#828282;fill-opacity:1;stroke:#000000;stroke-width:0.999998;stroke-linecap:round;stroke-linejoin:round"
         d="m 124.36769,25.404614 c -0.5355,21.255873 -0.4598,41.896768 0,62.151186 2.75977,0.345286 5.5121,0.336961 8.25751,0 2.38037,-2.648362 4.98603,-5.345491 9.04326,-6.996164 7.00042,-0.602942 14.27807,-0.130504 20.94866,0.451164 l -0.0405,-2.966875 c -7.36852,-0.392035 -14.84656,-0.364383 -22.41247,0 -3.78485,1.391778 -6.50445,4.397576 -9.18725,7.124887 l -4.19474,0.167184 c -0.19466,-19.834025 -0.1858,-39.81767 0,-59.931382 -0.80714,0.05532 -1.6126,0.07043 -2.41447,0 z"
         sodipodi:nodetypes="ccccccccccc" /><path
         id="rect2"
         style="fill:#9c9c9c;fill-opacity:1;stroke:#000000;stroke-width:0.999996;stroke-linecap:round;stroke-linejoin:round"
         d="m 122.5,12.554149 c 4.26067,-0.538955 8.37449,-0.456363 12.4,0 0.56409,2.056807 0.49206,4.124751 0,6.200051 h -6.2 v 6.199952 c -2.06667,0.529348 -4.13333,0.79266 -6.2,0 -0.39115,-4.133334 -0.42913,-8.266669 0,-12.400003 z"
         sodipodi:nodetypes="ccccccc" /><circle
         style="fill:#828282;fill-opacity:1;stroke:#000000;stroke-width:1;stroke-linecap:round;stroke-linejoin:round;stroke-dasharray:none;stroke-opacity:1;paint-order:normal"
         id="path6"
         cx="125.57915"
         cy="22.489517"
         r="0.96875012" /><circle
         style="fill:#828282;fill-opacity:1;stroke:#000000;stroke-width:1;stroke-linecap:round;stroke-linejoin:round;stroke-dasharray:none;stroke-opacity:1;paint-order:normal"
         id="path6-7"
         cx="129.62662"
         cy="80.097649"
         r="0.96875012" /><circle
         style="fill:#828282;fill-opacity:1;stroke:#000000;stroke-width:1;stroke-linecap:round;stroke-linejoin:round;stroke-dasharray:none;stroke-opacity:1;paint-order:normal"
         id="path6-6"
         cx="129.62662"
         cy="63.546093"
         r="0.96875012" /><path
         id="path8"
         style="fill:#9a9a9a;fill-opacity:1;stroke:#000000;stroke-linecap:round;stroke-linejoin:round"
         d="m 165.93319,64.171263 c -17.71929,0.38271 -32.1253,-9.75571 -32.90339,-21.01272 -0.79427,-11.491203 14.0214,-19.691584 32.3134,-18.418799 7.4673,0.105249 6.71258,39.540837 0.58999,39.431519 z"
         sodipodi:nodetypes="cscc" /></g></g></svg>
