<?xml version="1.0" encoding="UTF-8" standalone="no"?>
<!-- Created with Inkscape (http://www.inkscape.org/) -->

<svg
   width="72.721138mm"
   height="74.996185mm"
   viewBox="0 0 72.721138 74.996185"
   version="1.1"
   id="svg1"
   xml:space="preserve"
   inkscape:version="1.3.2 (091e20ef0f, 2023-11-25)"
   sodipodi:docname="Pemguin.svg"
   xmlns:inkscape="http://www.inkscape.org/namespaces/inkscape"
   xmlns:sodipodi="http://sodipodi.sourceforge.net/DTD/sodipodi-0.dtd"
   xmlns:xlink="http://www.w3.org/1999/xlink"
   xmlns="http://www.w3.org/2000/svg"
   xmlns:svg="http://www.w3.org/2000/svg"><sodipodi:namedview
     id="namedview1"
     pagecolor="#ffffff"
     bordercolor="#000000"
     borderopacity="0.25"
     inkscape:showpageshadow="2"
     inkscape:pageopacity="0.0"
     inkscape:pagecheckerboard="0"
     inkscape:deskcolor="#d1d1d1"
     inkscape:document-units="mm"
     inkscape:zoom="2.0005967"
     inkscape:cx="233.18043"
     inkscape:cy="168.94959"
     inkscape:window-width="1920"
     inkscape:window-height="1008"
     inkscape:window-x="0"
     inkscape:window-y="0"
     inkscape:window-maximized="1"
     inkscape:current-layer="layer1" /><defs
     id="defs1"><inkscape:path-effect
       effect="powerstroke"
       id="path-effect26"
       is_visible="true"
       lpeversion="1.3"
       scale_width="1"
       interpolator_type="CentripetalCatmullRom"
       interpolator_beta="0.2"
       start_linecap_type="zerowidth"
       end_linecap_type="zerowidth"
       offset_points="0.031851696,0.026342307 | 0.43198067,0.10919239 | 0.96417452,0.017320922"
       linejoin_type="round"
       miter_limit="4"
       not_jump="false"
       sort_points="true"
       message="&lt;b&gt;Ctrl + click&lt;/b&gt; on existing node and move it" /><inkscape:path-effect
       effect="powerstroke"
       id="path-effect25"
       is_visible="true"
       lpeversion="1.3"
       scale_width="1"
       interpolator_type="CentripetalCatmullRom"
       interpolator_beta="0.2"
       start_linecap_type="zerowidth"
       end_linecap_type="zerowidth"
       offset_points="0.04284819,0.12332459 | 0.88585682,0.37798771 | 1.6267046,0.17837906"
       linejoin_type="round"
       miter_limit="4"
       not_jump="false"
       sort_points="true"
       message="&lt;b&gt;Ctrl + click&lt;/b&gt; on existing node and move it" /><inkscape:path-effect
       effect="powerstroke"
       id="path-effect24"
       is_visible="true"
       lpeversion="1.3"
       scale_width="1"
       interpolator_type="CentripetalCatmullRom"
       interpolator_beta="0.2"
       start_linecap_type="zerowidth"
       end_linecap_type="zerowidth"
       offset_points="0.045371521,0.095079831 | 0.45546231,0.44908204 | 0.99734742,0.11456168"
       linejoin_type="round"
       miter_limit="4"
       not_jump="false"
       sort_points="true"
       message="&lt;b&gt;Ctrl + click&lt;/b&gt; on existing node and move it" /><inkscape:path-effect
       effect="powerstroke"
       id="path-effect23"
       is_visible="true"
       lpeversion="1.3"
       scale_width="1"
       interpolator_type="CentripetalCatmullRom"
       interpolator_beta="0.2"
       start_linecap_type="zerowidth"
       end_linecap_type="zerowidth"
       offset_points="0.52280407,0.29934061 | 1.4765852,0.26877171 | 2.184024,0.36892522"
       linejoin_type="round"
       miter_limit="4"
       not_jump="false"
       sort_points="true"
       message="&lt;b&gt;Ctrl + click&lt;/b&gt; on existing node and move it" /><inkscape:path-effect
       effect="powerstroke"
       id="path-effect22"
       is_visible="true"
       lpeversion="1.3"
       scale_width="1"
       interpolator_type="CentripetalCatmullRom"
       interpolator_beta="0.2"
       start_linecap_type="zerowidth"
       end_linecap_type="zerowidth"
       offset_points="2,0.5"
       linejoin_type="round"
       miter_limit="4"
       not_jump="false"
       sort_points="true"
       message="&lt;b&gt;Ctrl + click&lt;/b&gt; on existing node and move it" /><inkscape:path-effect
       effect="powerstroke"
       id="path-effect21"
       is_visible="true"
       lpeversion="1.3"
       scale_width="1"
       interpolator_type="CentripetalCatmullRom"
       interpolator_beta="0.2"
       start_linecap_type="zerowidth"
       end_linecap_type="zerowidth"
       offset_points="0.20131491,0.35345232 | 1.0112267,0.20127799 | 1.7842181,0.3685427"
       linejoin_type="round"
       miter_limit="4"
       not_jump="false"
       sort_points="true"
       message="&lt;b&gt;Ctrl + click&lt;/b&gt; on existing node and move it" /><inkscape:path-effect
       effect="powerstroke"
       id="path-effect19"
       is_visible="true"
       lpeversion="1.3"
       scale_width="1"
       interpolator_type="CentripetalCatmullRom"
       interpolator_beta="0.2"
       start_linecap_type="zerowidth"
       end_linecap_type="zerowidth"
       offset_points="2,0.5"
       linejoin_type="round"
       miter_limit="4"
       not_jump="false"
       sort_points="true"
       message="&lt;b&gt;Ctrl + click&lt;/b&gt; on existing node and move it" /><linearGradient
       id="linearGradient12"
       inkscape:collect="always"><stop
         style="stop-color:#ffb409;stop-opacity:1;"
         offset="0"
         id="stop12" /><stop
         style="stop-color:#ffb409;stop-opacity:1;"
         offset="0.5"
         id="stop14" /><stop
         style="stop-color:#f89207;stop-opacity:1;"
         offset="0.5"
         id="stop13" /></linearGradient><inkscape:path-effect
       effect="powerstroke"
       id="path-effect12"
       is_visible="true"
       lpeversion="1.3"
       scale_width="1"
       interpolator_type="CentripetalCatmullRom"
       interpolator_beta="0.2"
       start_linecap_type="zerowidth"
       end_linecap_type="zerowidth"
       offset_points="0.12370084,0.29619022 | 1,0.5 | 1.7804675,0.21498193"
       linejoin_type="round"
       miter_limit="4"
       not_jump="false"
       sort_points="true"
       message="&lt;b&gt;Ctrl + click&lt;/b&gt; on existing node and move it" /><inkscape:path-effect
       effect="powerstroke"
       id="path-effect11"
       is_visible="true"
       lpeversion="1.3"
       scale_width="0.8"
       interpolator_type="CentripetalCatmullRom"
       interpolator_beta="0.23684211"
       start_linecap_type="square"
       end_linecap_type="zerowidth"
       offset_points="0.2,0.5 | 1,0.40953938 | 1.7319445,0.21760136"
       linejoin_type="spiro"
       miter_limit="4"
       not_jump="false"
       sort_points="true"
       message="&lt;b&gt;Ctrl + click&lt;/b&gt; on existing node and move it" /><linearGradient
       inkscape:collect="always"
       xlink:href="#linearGradient12"
       id="linearGradient14"
       x1="30.052393"
       y1="69.957649"
       x2="29.999155"
       y2="81.416191"
       gradientUnits="userSpaceOnUse"
       gradientTransform="translate(-4.7666309,-5.841505)" /><linearGradient
       inkscape:collect="always"
       xlink:href="#linearGradient12"
       id="linearGradient16"
       x1="58.737026"
       y1="69.776497"
       x2="59.102795"
       y2="81.369644"
       gradientUnits="userSpaceOnUse"
       gradientTransform="translate(-4.7666309,-5.841505)" /><inkscape:path-effect
       effect="fill_between_many"
       method="bsplinespiro"
       autoreverse="false"
       close="false"
       join="false"
       linkedpaths="#path19,0,1"
       id="path-effect20"
       is_visible="true"
       lpeversion="0" /></defs><g
     inkscape:label="Layer 1"
     inkscape:groupmode="layer"
     id="layer1" /><g
     inkscape:groupmode="layer"
     id="layer3"
     inkscape:label="Feet"><path
       id="rect10"
       style="fill:url(#linearGradient14);stroke:#000000;stroke-linecap:round;stroke-linejoin:round"
       d="m 25.142268,63.415745 11.875709,1.67551 0.223728,7.266041 c -5.342149,2.193847 -11.939751,2.836296 -20.309135,1.289302 l -0.05961,-4.144745 z"
       sodipodi:nodetypes="cccccc" /><path
       style="fill:#000000;fill-rule:nonzero;stroke:none;stroke-width:1;stroke-linecap:round;stroke-linejoin:round;stroke-dasharray:none"
       d="m 24.928207,76.203168 c 0.916607,0.02593 2.169663,0.07046 3.086271,0.09639 1.083631,0.03079 2.934126,0.08101 4.646142,0.07807 1.224627,-0.0021 2.45152,-0.02998 3.60141,-0.107032 1.201495,-0.08051 2.223261,-0.208295 3.083869,-0.387036 0.03723,-0.0077 0.07466,-0.01569 0.109919,-0.02993 0.03526,-0.01424 0.06822,-0.03504 0.0939,-0.06308 0.02568,-0.02805 0.04347,-0.06298 0.05246,-0.09993 0.009,-0.03695 0.0092,-0.0754 0.0087,-0.113421 -0.0084,-0.622813 -0.01078,-1.368198 -0.06824,-1.82974 -0.03482,-0.279679 -0.118926,-0.562995 -0.142711,-0.675594 -0.03418,0.109891 -0.144328,0.384133 -0.205072,0.659347 -0.08623,0.390675 -0.15146,0.994253 -0.210285,1.54957 -0.779113,0.127303 -1.693066,0.218697 -2.764993,0.273931 -1.131148,0.05829 -2.340278,0.0713 -3.556325,0.06084 -1.688033,-0.01452 -3.55079,-0.0789 -4.623715,-0.1156 -1.710856,-0.05853 -2.263961,-0.07313 -3.088681,-0.09647 l -0.39984,-0.01131 -0.02262,0.79968 z"
       id="path11"
       sodipodi:nodetypes="ccc"
       inkscape:path-effect="#path-effect11"
       inkscape:original-d="m 24.939519,75.803328 c 5.051381,0.142914 10.760344,0.45293 14.344061,-0.241413 0.116322,-2.490046 0.116322,-2.490046 0.116322,-2.490046"
       transform="translate(-4.7666309,-5.841505)" /><path
       id="rect11"
       style="fill:url(#linearGradient16);stroke:#000000;stroke-linecap:round;stroke-linejoin:round"
       d="m 43.039964,65.060305 10.989702,-1.213184 8.982971,5.542449 -0.05694,3.77342 C 57.129146,74.297202 49.228435,74.704323 43.446574,72.6851 Z"
       sodipodi:nodetypes="cccccc" /><path
       style="fill:#000000;fill-opacity:1;fill-rule:nonzero;stroke:none;stroke-width:1;stroke-linecap:round;stroke-linejoin:round;stroke-dasharray:none"
       d="m 64.571802,75.483428 c -0.284665,-0.03912 -0.871315,-0.186279 -1.707987,-0.234724 -2.103903,-0.12182 -7.699618,0.05678 -11.585539,0.212352 -0.133827,-0.792813 -0.346265,-1.645427 -0.501996,-2.141877 -0.09932,-0.316629 -0.245648,-0.598467 -0.294778,-0.718161 -0.02211,0.127482 -0.104077,0.434279 -0.132639,0.76489 -0.0537,0.621629 -0.07636,1.760969 0.0049,2.667198 a 0.48965284,0.50245784 86.586033 0 0 0.515078,0.445334 c 3.892062,-0.121712 9.845413,-0.3539 12.016362,-0.637741 0.831002,-0.108649 1.405513,-0.297726 1.686616,-0.357271 z"
       id="path12"
       sodipodi:nodetypes="ccc"
       inkscape:path-effect="#path-effect12"
       inkscape:original-d="M 64.571802,75.483428 50.850784,75.978766 50.481502,72.601018"
       transform="translate(-4.7666309,-5.841505)" /></g><g
     inkscape:groupmode="layer"
     id="layer4"
     inkscape:label="Body Colour"
     style="display:inline"><path
       id="path16"
       style="fill:#333333;fill-opacity:1;stroke:none;stroke-width:1;stroke-linecap:round;stroke-linejoin:round;stroke-dasharray:none"
       d="M 0.49997663,0.49986248 C 9.4077551,12.880393 16.866489,26.019827 26.119267,27.928454 c 0,0 5.335632,-18.028697 11.917856,-18.761637 C 44.619346,8.433878 51.171164,25.609852 51.171164,25.609852 66.463558,19.204987 69.263167,8.680708 72.051688,2.2444155 73.469157,19.290559 65.901506,30.246437 55.054054,35.56233 61.550232,48.24111 66.451956,61.382814 56.723209,63.343735 46.994462,65.304656 35.325665,66.106006 25.142268,63.415745 14.958871,60.725484 17.742498,49.626267 20.91327,37.147787 7.3240031,28.664728 2.1189768,13.681557 0.49997663,0.49986248 Z"
       sodipodi:nodetypes="cczccczzcc" /></g><g
     inkscape:groupmode="layer"
     id="layer2"
     inkscape:label="Body"><path
       id="rect31-3"
       style="opacity:0.3;fill:#cccccc;stroke-linecap:round;stroke-linejoin:round"
       d="M 72.051688,2.2444155 C 68.950429,12.344334 62.90136,20.678553 51.171164,25.609852 l 1.179195,3.274218 C 67.126367,23.007508 70.108581,12.816047 72.051688,2.2444155 Z"
       sodipodi:nodetypes="cccc" /><path
       id="rect31"
       style="opacity:0.3;fill:#cccccc;stroke-linecap:round;stroke-linejoin:round"
       d="M 26.119267,27.928454 C 13.824485,23.258599 8.1787181,11.761996 0.68264083,1.8851343 8.2839981,15.662185 13.824183,23.102922 25.370646,31.475945 c 0.574373,-1.17486 0.733436,-2.359484 0.748621,-3.547491 z"
       sodipodi:nodetypes="cccc" /><path
       id="path28"
       style="fill:#ffffff;fill-opacity:1;stroke:#000000;stroke-width:1;stroke-linecap:round;stroke-linejoin:round;stroke-dasharray:none;stroke-opacity:1;paint-order:normal"
       d="m 52.350296,64.121666 c 0.847725,-8.068757 4.994992,-12.129033 -10.105326,-39.574845 -2.131888,-0.08198 -4.306059,-2.227567 -6.371704,0.923458 -0.348635,0.59056 -0.687629,1.172946 -1.017171,1.747316 -10.844815,18.901823 -11.453012,29.123602 -8.544003,36.363019 8.67698,1.786374 17.35607,2.17362 26.038204,0.541052 z"
       sodipodi:nodetypes="cccscc" /><path
       id="rect30"
       style="opacity:0.3;fill:#4d4d4d;stroke-linecap:round;stroke-linejoin:round"
       d="m 18.089996,54.987947 c 14.975282,8.287032 29.673738,8.415146 44.096776,0.405822 0.05143,4.446454 -1.01438,8.37722 -9.836476,8.727897 -8.450874,1.394737 -16.807941,1.41664 -25.047236,-0.285041 -7.214929,-1.085942 -8.646306,-4.77289 -9.213064,-8.848678 z"
       sodipodi:nodetypes="ccccc" /><path
       id="rect8"
       style="fill:none;fill-opacity:1;stroke:#000000;stroke-width:1;stroke-linecap:round;stroke-linejoin:round;stroke-dasharray:none;paint-order:stroke fill markers"
       d="M 0.49997663,0.49986248 C 9.4077551,12.880393 16.866489,26.019827 26.119267,27.928454 c 0,0 5.335632,-18.028697 11.917856,-18.761637 C 44.619346,8.433878 51.171164,25.609852 51.171164,25.609852 66.463558,19.204987 69.263167,8.680708 72.051688,2.2444155 73.469157,19.290559 65.901506,30.246437 55.054054,35.56233 61.550232,48.24111 66.451956,61.382814 56.723209,63.343735 46.994462,65.304656 35.325665,66.106006 25.142268,63.415745 14.958871,60.725484 17.742498,49.626267 20.91327,37.147787 7.3240031,28.664728 2.1189768,13.681557 0.49997663,0.49986248 Z"
       sodipodi:nodetypes="cczccczzcc" /><path
       style="fill:none;stroke:#000000;stroke-width:1;stroke-linecap:round;stroke-dasharray:none"
       d="m 20.91327,37.147785 c 0.965499,-0.319328 2.226789,-1.531944 4.457376,-5.671838"
       id="path9"
       sodipodi:nodetypes="cc" /><path
       style="fill:none;stroke:#000000;stroke-width:1;stroke-linecap:round;stroke-dasharray:none"
       d="m 53.529554,33.088794 c -1.843963,-4.882387 -1.683487,-5.2372 -2.35839,-7.478943"
       id="path10"
       sodipodi:nodetypes="cc" /></g><g
     inkscape:groupmode="layer"
     id="layer5"
     inkscape:label="Face"
     style="display:inline"><path
       id="rect29"
       style="opacity:0.3;fill:#b3b3b3;stroke-linecap:round;stroke-linejoin:round"
       d="m 36.684582,24.843712 4.874868,-0.197538 2.440084,4.141286 c -0.983507,0.891559 -3.438951,1.144283 -9.385163,-0.118021 z"
       sodipodi:nodetypes="ccccc" /><path
       style="fill:#ffffff;fill-opacity:1;stroke:none;stroke-width:1;stroke-linecap:round;stroke-linejoin:round;stroke-dasharray:none"
       d="m 33.492584,20.090222 c 0.65254,-4.447815 2.508353,-6.223633 5.766741,-4.884888 2.946039,-1.428544 4.619663,-0.751016 4.107391,3.544554 z"
       id="path17"
       sodipodi:nodetypes="cccc" /><path
       style="fill:#000000;fill-opacity:1;fill-rule:nonzero;stroke:none;stroke-width:1;stroke-linecap:round;stroke-linejoin:round;stroke-dasharray:none"
       d="m 38.259215,25.931727 c 0.141581,-0.501549 0.492366,-1.346388 0.876517,-2.243556 0.06057,-0.141453 0.124266,-0.289207 0.192723,-0.440194 0.277225,-0.611434 0.605806,-1.213672 1.070082,-1.661842 0.196962,-0.190129 0.415567,-0.349666 0.661756,-0.470785 0.240087,-0.118118 0.505902,-0.199406 0.800968,-0.23667 0.622259,-0.07859 1.331623,0.0449 2.088197,0.354348 a 0.20224485,0.20027611 42.953237 0 0 0.164324,-0.0051 c 0.03265,-0.0159 0.065,-0.03141 0.09704,-0.04651 0.316385,-0.149196 0.628529,-0.271878 0.927955,-0.361895 0.315892,-0.09497 0.609814,-0.151244 0.876037,-0.167662 0.264634,-0.01632 0.490769,0.0074 0.680627,0.0627 0.193996,0.05651 0.344085,0.143471 0.466745,0.251461 0.130581,0.114964 0.236397,0.260237 0.325648,0.433011 0.105775,0.204766 0.185065,0.441658 0.253988,0.70253 0.02192,0.08295 0.04228,0.166327 0.06193,0.249857 0.05951,0.252977 0.115101,0.508768 0.166622,0.797235 0.100295,0.561546 0.159035,1.118449 0.162977,1.442711 0.07771,-0.304896 0.253775,-0.857192 0.345821,-1.445681 0.04672,-0.298704 0.07141,-0.603246 0.05469,-0.895416 -0.0057,-0.09903 -0.01604,-0.200535 -0.03174,-0.302938 -0.04867,-0.317488 -0.148762,-0.64459 -0.318648,-0.935407 -0.147411,-0.252344 -0.343579,-0.471014 -0.592617,-0.632854 -0.231331,-0.150333 -0.492019,-0.241191 -0.775735,-0.277767 -0.273719,-0.03529 -0.563175,-0.01948 -0.864661,0.03467 -0.303772,0.05457 -0.621977,0.148478 -0.950648,0.270071 -0.312591,0.115644 -0.634536,0.256296 -0.961235,0.411532 -0.0064,0.003 -0.01284,0.0061 -0.01929,0.0092 -0.756711,-0.30409 -1.493061,-0.487121 -2.196481,-0.465769 -0.349774,0.01062 -0.683538,0.07162 -1.000158,0.186376 -0.325309,0.117903 -0.622173,0.288863 -0.890401,0.505124 -0.626487,0.505111 -1.049693,1.220187 -1.306008,1.907073 -0.064,0.171502 -0.116997,0.339817 -0.159499,0.500191 -0.259269,0.978322 -0.199945,2.004413 -0.207526,2.471952 z"
       id="path18"
       sodipodi:nodetypes="ccc"
       inkscape:path-effect="#path-effect21"
       inkscape:original-d="m 38.259215,25.931727 c 0.65254,-4.447815 2.508353,-6.223633 5.766741,-4.884888 2.946039,-1.428544 4.619663,-0.751016 4.107391,3.544554"
       transform="translate(-4.7666309,-5.841505)" /><path
       style="fill:#ffb409;fill-opacity:1;fill-rule:nonzero;stroke:none;stroke-width:1;stroke-linecap:round;stroke-linejoin:round;stroke-dasharray:none"
       d="m 38.259215,25.931727 c 4.944264,-1.234427 8.655051,-1.579521 11.846269,-1.643742 0.258246,2.575855 -0.99857,4.966219 -3.183104,6.438043 -2.184534,1.471824 -4.218249,1.53803 -6.150623,0.690374 -1.932374,-0.847656 -3.031763,-2.913329 -2.512542,-5.484675 z"
       id="path19"
       sodipodi:nodetypes="cczzc"
       inkscape:linked-fill="path20"
       transform="translate(-4.7666309,-5.841505)" /><path
       style="fill:#000000;fill-opacity:1;fill-rule:nonzero;stroke:none;stroke-width:1;stroke-linecap:round;stroke-linejoin:round;stroke-dasharray:none"
       d="m 40.771757,31.416402 c -0.613574,-0.33806 -1.416581,-1.025226 -1.911634,-2.222239 -0.01716,-0.04149 -0.03375,-0.08304 -0.0498,-0.124621 -0.281106,-0.728426 -0.473745,-1.689095 -0.284696,-2.891897 2.385885,-0.607561 4.394357,-0.987771 6.075037,-1.204313 1.946497,-0.250791 3.633611,-0.305479 5.165642,-0.321651 0.01152,0.314864 0.0023,0.647479 -0.03513,0.99368 -0.06732,0.622377 -0.233242,1.352975 -0.60012,2.125331 -0.472049,0.99376 -1.238594,1.969032 -2.340998,2.758947 -1.091347,0.781771 -2.105547,1.166746 -3.04854,1.292567 -1.299588,0.1734 -2.373222,-0.166635 -2.969768,-0.405804 0.566153,0.270323 1.637107,0.715867 2.991735,0.643432 0.995328,-0.05322 2.095934,-0.37877 3.291204,-1.137418 1.214029,-0.770758 2.105836,-1.776194 2.67419,-2.851071 0.441669,-0.835289 0.654182,-1.645331 0.735517,-2.343448 0.06128,-0.525947 0.05231,-1.021408 -3.6e-5,-1.475892 a 0.36643291,0.35570952 85.710219 0 0 -0.36614,-0.324629 c -1.626723,0.05312 -3.474913,0.223755 -5.568713,0.513142 -1.750553,0.241947 -3.832878,0.588623 -6.344019,1.195937 A 0.3114971,0.30004006 89.772112 0 0 37.9609,25.87149 c -0.303986,1.405297 -0.117145,2.581648 0.301341,3.438925 0.02234,0.04576 0.04565,0.09122 0.06991,0.136318 0.697043,1.295618 1.839427,1.768655 2.439604,1.969669 z"
       id="path22"
       sodipodi:nodetypes="ccczc"
       inkscape:linked-fill="path20"
       inkscape:path-effect="#path-effect23"
       inkscape:original-d="m 40.771757,31.416402 c -1.932374,-0.847656 -3.031763,-2.913329 -2.512542,-5.484675 4.944264,-1.234427 8.655051,-1.579521 11.846269,-1.643742 0.258246,2.575855 -0.99857,4.966219 -3.183104,6.438043 -2.184534,1.471824 -4.218249,1.53803 -6.150623,0.690374"
       transform="translate(-4.7666309,-5.841505)" /><path
       style="fill:#000000;fill-opacity:1;fill-rule:nonzero;stroke:none;stroke-width:1;stroke-linecap:round;stroke-linejoin:round;stroke-dasharray:none"
       d="m 40.036913,28.568786 c 0.07391,0.01946 0.212671,0.0888 0.47632,0.117894 0.831849,0.0918 2.646162,-0.0074 4.444269,-0.663416 0.700263,-0.255469 1.301787,-0.557532 1.79578,-0.87074 0.298947,-0.189542 0.547487,-0.37611 0.750864,-0.549941 0.04206,-0.03594 0.08313,-0.07224 0.123173,-0.108844 0.120412,0.268731 0.205816,0.535635 0.265376,0.79514 0.09718,0.423416 0.123288,0.8173 0.122066,1.140556 -6.92e-4,0.183209 -0.01029,0.347342 -0.02219,0.482404 -0.04415,0.501084 -0.05168,0.727512 -0.02425,0.738983 0.01654,0.0069 0.190272,-0.06917 0.374164,-0.669421 0.04268,-0.13932 0.08781,-0.310229 0.124442,-0.507674 0.06395,-0.344722 0.105367,-0.789155 0.04987,-1.288117 -0.05278,-0.474502 -0.192729,-0.991409 -0.475348,-1.504342 a 0.36695135,0.37878356 51.813172 0 0 -0.600538,-0.0621 c -0.125133,0.133976 -0.268571,0.271025 -0.429391,0.409996 -0.17726,0.153178 -0.39568,0.32402 -0.662646,0.503985 -0.442397,0.298225 -0.985727,0.599522 -1.633514,0.873374 -1.811555,0.765833 -3.242324,0.869693 -4.208989,1.033606 -0.261801,0.04439 -0.389684,0.108503 -0.469452,0.12866 z"
       id="path24"
       sodipodi:nodetypes="ccc"
       inkscape:path-effect="#path-effect25"
       inkscape:original-d="m 40.036913,28.568786 c 3.718525,0.01853 6.51954,-1.394713 7.681928,-2.702607 1.059369,1.848214 0.249476,3.784643 0.249476,3.784643"
       transform="translate(-4.7666309,-5.841505)" /><path
       style="fill:#000000;fill-opacity:1;fill-rule:nonzero;stroke:none;stroke-width:1;stroke-linecap:round;stroke-linejoin:round;stroke-dasharray:none"
       d="m 40.075064,27.819789 c -0.0086,0.007 -0.02971,0.01729 -0.05269,0.04364 -0.05134,0.05888 -0.139258,0.191628 -0.199176,0.353091 -0.03813,0.102763 -0.06076,0.204739 -0.06768,0.297081 -0.0025,0.03372 -0.003,0.07016 -0.0014,0.108586 0.01179,0.277266 0.139261,0.576628 0.182142,0.667153 0.01207,0.02548 0.02346,0.03862 0.02809,0.04625 9.49e-4,-0.009 0.0056,-0.02554 0.0057,-0.05379 4.02e-4,-0.09323 -0.01505,-0.425072 -0.002,-0.658866 0.0019,-0.03386 0.0039,-0.0659 0.0054,-0.0953 0.0044,-0.0848 0.0079,-0.16668 0.02059,-0.268185 0.02277,-0.182133 0.05277,-0.268186 0.07534,-0.372237 0.0073,-0.03356 0.0045,-0.05602 0.0057,-0.06743 z"
       id="path25"
       sodipodi:nodetypes="cc"
       inkscape:path-effect="#path-effect26"
       inkscape:original-d="m 40.075064,27.819789 c -0.318766,0.584997 -0.215014,1.050477 -0.110728,1.515806"
       transform="translate(-4.7666309,-5.841505)" /><ellipse
       style="fill:#000000;fill-opacity:1;stroke:none;stroke-width:3.42388;stroke-linecap:round;stroke-linejoin:round;stroke-dasharray:none;paint-order:stroke fill markers"
       id="path27"
       cx="38.267487"
       cy="16.242722"
       rx="0.60284102"
       ry="0.58053613" /><ellipse
       style="fill:#000000;fill-opacity:1;stroke:none;stroke-width:3.42388;stroke-linecap:round;stroke-linejoin:round;stroke-dasharray:none;paint-order:stroke fill markers"
       id="path27-2"
       cx="41.677895"
       cy="15.698891"
       rx="0.60284102"
       ry="0.58053613" /></g></svg>
